HIERARCHY
ROOT hip
{
  OFFSET 0 0 0
  CHANNELS 6 Xposition Yposition Zposition Zrotation Yrotation Xrotation
  JOINT abdomen
  {
    OFFSET 0 20.6881 -0.73152
    CHANNELS 3 Zrotation Xrotation Yrotation
    JOINT chest
    {
      OFFSET 0 11.7043 -0.48768
      CHANNELS 3 Zrotation Xrotation Yrotation
      JOINT neck
      {
        OFFSET 0 22.1894 -2.19456
        CHANNELS 3 Zrotation Xrotation Yrotation
        JOINT head
        {
          OFFSET -0.24384 7.07133 1.2192
          CHANNELS 3 Zrotation Xrotation Yrotation
          JOINT leftEye
          {
            OFFSET 4.14528 8.04674 8.04672
            CHANNELS 3 Zrotation Xrotation Yrotation
            End Site
            {
              OFFSET 1 0 0
            }
          }
          JOINT rightEye
          {
            OFFSET -3.6576 8.04674 8.04672
            CHANNELS 3 Zrotation Xrotation Yrotation
            End Site
            {
              OFFSET 1 0 0
            }
          }
        }
      }
      JOINT rCollar
      {
        OFFSET -2.68224 19.2634 -4.8768
        CHANNELS 3 Zrotation Xrotation Yrotation
        JOINT rShldr
        {
          OFFSET -8.77824 -1.95073 1.46304
          CHANNELS 3 Zrotation Xrotation Yrotation
          JOINT rForeArm
          {
            OFFSET -28.1742 -1.7115 0.48768
            CHANNELS 3 Zrotation Xrotation Yrotation
            JOINT rHand
            {
              OFFSET -22.5879 0.773209 7.07136
              CHANNELS 3 Zrotation Xrotation Yrotation
              JOINT rThumb1
              {
                OFFSET -1.2192 -0.487915 3.41376
                CHANNELS 3 Zrotation Xrotation Yrotation
                JOINT rThumb2
                {
                  OFFSET -3.37035 -0.52449 3.41376
                  CHANNELS 3 Zrotation Xrotation Yrotation
                  End Site
                  {
                    OFFSET -1.78271 -1.18214 1.43049
                  }
                }
              }
              JOINT rIndex1
              {
                OFFSET -7.75947 0.938293 5.60832
                CHANNELS 3 Zrotation Xrotation Yrotation
                JOINT rIndex2
                {
                  OFFSET -2.54057 -0.884171 1.56538
                  CHANNELS 3 Zrotation Xrotation Yrotation
                  End Site
                  {
                    OFFSET -1.62519 -0.234802 1.16502
                  }
                }
              }
              JOINT rMid1
              {
                OFFSET -8.24714 1.18213 3.41376
                CHANNELS 3 Zrotation Xrotation Yrotation
                JOINT rMid2
                {
                  OFFSET -3.10165 -0.590103 1.0647
                  CHANNELS 3 Zrotation Xrotation Yrotation
                  End Site
                  {
                    OFFSET -2.48547 -0.328903 0.83742
                  }
                }
              }
              JOINT rRing1
              {
                OFFSET -8.82822 0.546677 1.51678
                CHANNELS 3 Zrotation Xrotation Yrotation
                JOINT rRing2
                {
                  OFFSET -2.60934 -0.819778 -0.0198488
                  CHANNELS 3 Zrotation Xrotation Yrotation
                  End Site
                  {
                    OFFSET -2.33842 -0.294052 0.168128
                  }
                }
              }
              JOINT rPinky1
              {
                OFFSET -8.27202 -0.0477905 -0.4584
                CHANNELS 3 Zrotation Xrotation Yrotation
                JOINT rPinky2
                {
                  OFFSET -1.82734 -0.647385 -0.700984
                  CHANNELS 3 Zrotation Xrotation Yrotation
                  End Site
                  {
                    OFFSET -1.69225 -0.51767 -0.607171
                  }
                }
              }
            }
          }
        }
      }
      JOINT lCollar
      {
        OFFSET 2.68224 19.2634 -4.8768
        CHANNELS 3 Zrotation Xrotation Yrotation
        JOINT lShldr
        {
          OFFSET 8.77824 -1.95073 1.46304
          CHANNELS 3 Zrotation Xrotation Yrotation
          JOINT lForeArm
          {
            OFFSET 28.1742 -1.7115 0.48768
            CHANNELS 3 Zrotation Xrotation Yrotation
            JOINT lHand
            {
              OFFSET 22.5879 0.773209 7.07136
              CHANNELS 3 Zrotation Xrotation Yrotation
              JOINT lThumb1
              {
                OFFSET 1.2192 -0.487915 3.41376
                CHANNELS 3 Zrotation Xrotation Yrotation
                JOINT lThumb2
                {
                  OFFSET 3.37035 -0.52449 3.41376
                  CHANNELS 3 Zrotation Xrotation Yrotation
                  End Site
                  {
                    OFFSET 1.78271 -1.18214 1.43049
                  }
                }
              }
              JOINT lIndex1
              {
                OFFSET 7.75947 0.938293 5.60832
                CHANNELS 3 Zrotation Xrotation Yrotation
                JOINT lIndex2
                {
                  OFFSET 2.54057 -0.884171 1.56538
                  CHANNELS 3 Zrotation Xrotation Yrotation
                  End Site
                  {
                    OFFSET 1.62519 -0.234802 1.16502
                  }
                }
              }
              JOINT lMid1
              {
                OFFSET 8.24714 1.18213 3.41376
                CHANNELS 3 Zrotation Xrotation Yrotation
                JOINT lMid2
                {
                  OFFSET 3.10165 -0.590103 1.0647
                  CHANNELS 3 Zrotation Xrotation Yrotation
                  End Site
                  {
                    OFFSET 2.48547 -0.328903 0.83742
                  }
                }
              }
              JOINT lRing1
              {
                OFFSET 8.82822 0.546677 1.51678
                CHANNELS 3 Zrotation Xrotation Yrotation
                JOINT lRing2
                {
                  OFFSET 2.60934 -0.819778 -0.0198488
                  CHANNELS 3 Zrotation Xrotation Yrotation
                  End Site
                  {
                    OFFSET 2.33842 -0.294052 0.168128
                  }
                }
              }
              JOINT lPinky1
              {
                OFFSET 8.27202 -0.0477905 -0.4584
                CHANNELS 3 Zrotation Xrotation Yrotation
                JOINT lPinky2
                {
                  OFFSET 1.82734 -0.647385 -0.700984
                  CHANNELS 3 Zrotation Xrotation Yrotation
                  End Site
                  {
                    OFFSET 1.69225 -0.51767 -0.607171
                  }
                }
              }
            }
          }
        }
      }
    }
  }
  JOINT rButtock
  {
    OFFSET -8.77824 4.35084 1.2192
    CHANNELS 3 Zrotation Xrotation Yrotation
    JOINT rThigh
    {
      OFFSET 0 -1.70687 -2.19456
      CHANNELS 3 Zrotation Xrotation Yrotation
      JOINT rShin
      {
        OFFSET 0 -36.8199 0.73152
        CHANNELS 3 Zrotation Xrotation Yrotation
        JOINT rFoot
        {
          OFFSET 0.73152 -45.1104 -5.12064
          CHANNELS 3 Zrotation Xrotation Yrotation
          End Site
          {
            OFFSET -1.1221 -3.69964 12.103
          }
        }
      }
    }
  }
  JOINT lButtock
  {
    OFFSET 8.77824 4.35084 1.2192
    CHANNELS 3 Zrotation Xrotation Yrotation
    JOINT lThigh
    {
      OFFSET 0 -1.70687 -2.19456
      CHANNELS 3 Zrotation Xrotation Yrotation
      JOINT lShin
      {
        OFFSET 0 -36.8199 0.73152
        CHANNELS 3 Zrotation Xrotation Yrotation
        JOINT lFoot
        {
          OFFSET -0.73152 -45.1104 -5.12064
          CHANNELS 3 Zrotation Xrotation Yrotation
          End Site
          {
            OFFSET 1.1221 -3.69964 12.103
          }
        }
      }
    }
  }
}
MOTION
Frames:	6
Frame Time:	0.00833333
88.4795 85.0114 -139.189 0.0 0.0 0.0 0.0256066 -6.19273e-06 0.000728847 0.00706485 8.62999e-06 0.00122383 -2.23044e-16 -7.95139e-16 1.12593e-17 -6.70898e-16 3.18055e-15 3.41661e-17 -0.0 0.0 0.0 -0.0 0.0 0.0 -1.00721e-16 1.94126e-19 1.49089e-16 -3.26131e-17 2.17421e-16 1.19271e-15 -4.18442e-14 1.27222e-14 1.90833e-14 -4.60826e-13 -9.44227e-15 3.18055e-15 -1.09409e-12 3.92603e-15 6.04305e-14 -1.89362e-12 3.18055e-15 9.22361e-14 -1.08775e-12 6.75868e-15 4.13472e-14 7.73091 5.47488 0.417314 -1.09461e-12 4.07509e-15 6.04305e-14 2.90554 0.965183 0.102902 -1.08264e-12 4.47265e-15 5.64548e-14 10.2786 0.731801 0.0259123 -1.0963e-12 2.78299e-15 6.36111e-14 2.22167 -0.733487 -0.20892 -9.80706e-17 1.94126e-19 -1.49089e-16 -4.74443e-15 -5.59082e-17 -7.95139e-16 -3.72224e-14 -1.11319e-14 -2.54444e-14 -4.67107e-13 1.59276e-14 6.04305e-14 -1.09366e-12 9.88962e-15 4.45278e-14 -1.88488e-12 1.59028e-14 9.93923e-14 -1.09888e-12 1.31198e-14 6.67917e-14 -7.73091 5.47488 -0.417314 -1.09545e-12 1.0635e-14 5.08889e-14 -2.90554 0.965183 -0.102902 -1.10595e-12 9.93923e-15 5.24792e-14 -10.2786 0.731801 -0.0259123 -1.09252e-12 1.07344e-14 4.77083e-14 -2.22167 -0.733487 0.20892 -2.03217e-16 0.0 -3.88251e-19 0.512297 -3.13364 -0.0420885 -0.005628 0.123101 -0.0495522 -0.492797 3.00963 0.11736 2.03217e-16 0.0 3.88251e-19 -0.473327 -3.03453 0.0397105 0.005922 -0.0564355 0.0521751 0.492508 3.09005 -0.118956
88.6275 82.0227 -139.384 1.6945 -4.1101 -0.7031 -0.866655 3.09286 0.867558 0.296585 -1.28264 0.171851 -2.53397 -1.71972 -1.67034 5.02007 -3.51198 -1.77342 -0.0 0.0 0.0 -0.0 0.0 0.0 -2.26746e-14 -8.42934e-15 3.22016e-15 22.231 13.6218 -1.80183 -26.9795 -24.5643 13.7408 0.0370547 -4.27496 -0.594796 -8.15828e-11 3.83211e-11 -6.38559e-11 -1.40927e-10 7.16494e-11 -1.10833e-10 -8.15783e-11 3.83178e-11 -6.38715e-11 7.73091 5.47488 0.417314 -8.15852e-11 3.83157e-11 -6.38551e-11 2.90554 0.965183 0.102902 -8.15754e-11 3.83253e-11 -6.38584e-11 10.2786 0.731801 0.0259123 -8.15847e-11 3.83299e-11 -6.3851e-11 2.22167 -0.733487 -0.20892 -2.27026e-14 -8.42991e-15 2.91848e-15 -21.6512 10.85 3.32395 24.0643 -21.9188 -14.6679 -0.0296011 -3.82483 0.533255 -4.04117e-11 -3.02046e-10 1.63029e-11 -7.02015e-11 -5.26192e-10 2.80947e-11 -4.04176e-11 -3.02045e-10 1.63218e-11 -7.73091 5.47488 -0.417314 -4.04122e-11 -3.0205e-10 1.63057e-11 -2.90554 0.965183 -0.102902 -4.04214e-11 -3.02049e-10 1.6309e-11 -10.2786 0.731801 -0.0259123 -4.04085e-11 -3.02049e-10 1.63027e-11 -2.22167 -0.733487 0.20892 -2.03217e-16 0.0 -3.88251e-19 -0.445059 -9.78192 -0.543593 -0.0566962 21.9996 0.239917 -0.617389 5.02115 -1.63793 2.03217e-16 0.0 3.88251e-19 -1.53982 -8.47473 0.672917 0.0375076 12.9128 -0.0829329 0.657227 -2.48022 1.58643
88.6205 81.7883 -137.591 1.6564 -4.7168 -0.6056 -1.90292 6.36044 1.80532 0.60084 -2.62968 0.354963 -5.3302 -3.53214 -3.45109 10.1156 -7.21382 -3.68429 -0.0 0.0 0.0 -0.0 0.0 0.0 -4.78407e-14 -1.82379e-14 4.23039e-15 46.7585 27.9603 -4.02833 -38.5781 -45.1271 37.8719 -0.0212688 -8.77456 -1.23216 -1.68361e-10 1.01986e-10 -1.3453e-10 -2.90802e-10 1.8756e-10 -2.3347e-10 -1.68359e-10 1.01976e-10 -1.34542e-10 7.73091 5.47488 0.417314 -1.68366e-10 1.01974e-10 -1.34528e-10 2.90554 0.965183 0.102902 -1.68358e-10 1.01994e-10 -1.34531e-10 10.2786 0.731801 0.0259123 -1.68363e-10 1.02006e-10 -1.34523e-10 2.22167 -0.733487 -0.20892 -4.79021e-14 -1.82391e-14 3.92289e-15 -45.9929 22.2396 7.23856 34.7246 -39.8057 -37.6021 0.0171444 -7.8405 1.10123 -7.77227e-11 -5.21869e-10 3.9706e-11 -1.35145e-10 -9.10794e-10 6.84915e-11 -7.77294e-11 -5.21869e-10 3.97214e-11 -7.73091 5.47488 -0.417314 -7.77218e-11 -5.21876e-10 3.97051e-11 -2.90554 0.965183 -0.102902 -7.77296e-11 -5.21873e-10 3.97102e-11 -10.2786 0.731801 -0.0259123 -7.77173e-11 -5.21875e-10 3.97023e-11 -2.22167 -0.733487 0.20892 -2.03217e-16 0.0 -3.88251e-19 -1.59066 -16.7349 -1.10519 -0.441268 45.1656 0.723752 -0.609212 7.24575 -3.53428 2.03217e-16 0.0 3.88251e-19 -2.50073 -14.3221 1.36794 0.146204 26.6495 -0.245063 1.18804 -8.36742 3.39775
88.6066 81.779 -135.84 1.4895 -5.0444 -0.2577 -2.93499 9.27005 2.63182 0.898589 -3.84781 0.514135 -7.90333 -5.1416 -5.02904 14.3996 -10.4952 -5.40088 -0.0 0.0 0.0 -0.0 0.0 0.0 -6.78223e-14 -2.52884e-14 9.36229e-15 69.9518 40.6768 -6.93418 -31.2567 -50.2785 71.9966 -0.160856 -12.8193 -1.82492 -2.4256e-10 1.14956e-10 -1.91689e-10 -4.18995e-10 2.14942e-10 -3.32682e-10 -2.4256e-10 1.1494e-10 -1.91697e-10 7.73091 5.47488 0.417314 -2.42566e-10 1.14939e-10 -1.91686e-10 2.90554 0.965183 0.102902 -2.42561e-10 1.14967e-10 -1.91688e-10 10.2786 0.731801 0.0259123 -2.42561e-10 1.14984e-10 -1.9168e-10 2.22167 -0.733487 -0.20892 -6.79117e-14 -2.52901e-14 9.05363e-15 -69.2837 32.0712 11.5796 31.0036 -44.513 -66.2863 0.128459 -11.4705 1.62874 -1.19048e-10 -9.06159e-10 4.88197e-11 -2.06835e-10 -1.57861e-09 8.40853e-11 -1.19055e-10 -9.06161e-10 4.88318e-11 -7.73091 5.47488 -0.417314 -1.19046e-10 -9.0617e-10 4.88154e-11 -2.90554 0.965183 -0.102902 -1.19052e-10 -9.06166e-10 4.88221e-11 -10.2786 0.731801 -0.0259123 -1.1904e-10 -9.06169e-10 4.88127e-11 -2.22167 -0.733487 0.20892 -2.03217e-16 0.0 -3.88251e-19 -2.73618 -23.0711 -1.65546 -1.59015 65.7418 1.8658 -0.493209 9.01376 -5.19363 2.03217e-16 0.0 3.88251e-19 -3.29269 -19.3456 2.03219 0.32457 38.8503 -0.445383 2.00174 -13.571 5.13616
88.5816 81.8755 -134.026 1.2512 -5.56 -0.033 -3.74829 11.2934 3.14999 1.16356 -4.74378 0.612475 -9.70311 -6.26084 -6.08261 17.1323 -12.7658 -6.55358 -0.0 0.0 0.0 -0.0 0.0 0.0 -7.4843e-14 -2.54437e-14 2.47984e-14 87.5679 49.4792 -10.3033 -26.8759 -44.3398 92.122 -0.313501 -15.732 -2.26888 -2.8531e-10 1.18566e-12 -2.1506e-10 -4.92982e-10 2.10012e-11 -3.7333e-10 -2.8531e-10 1.16925e-12 -2.15066e-10 7.73091 5.47488 0.417314 -2.85317e-10 1.16995e-12 -2.15056e-10 2.90554 0.965183 0.102902 -2.85313e-10 1.19758e-12 -2.15058e-10 10.2786 0.731801 0.0259123 -2.85311e-10 1.21935e-12 -2.1505e-10 2.22167 -0.733487 -0.20892 -7.49461e-14 -2.54456e-14 2.45002e-14 -86.7095 38.4506 15.4557 28.0854 -39.938 -83.8108 0.251668 -14.1398 2.02899 -1.70408e-10 -1.70162e-09 2.22098e-11 -2.95387e-10 -2.95445e-09 3.76713e-11 -1.70416e-10 -1.70163e-09 2.22194e-11 -7.73091 5.47488 -0.417314 -1.70406e-10 -1.70163e-09 2.22035e-11 -2.90554 0.965183 -0.102902 -1.70411e-10 -1.70163e-09 2.22106e-11 -10.2786 0.731801 -0.0259123 -1.704e-10 -1.70163e-09 2.22003e-11 -2.22167 -0.733487 0.20892 -2.03217e-16 0.0 -3.88251e-19 -3.61504 -27.8723 -2.08448 -5.12092 79.838 5.35494 -0.41175 9.67186 -6.2136 2.03217e-16 0.0 3.88251e-19 -3.94898 -22.3183 2.52933 0.517906 47.2122 -0.660664 2.81882 -17.1118 6.54998
88.583 82.0098 -132.064 1.3251 -6.5536 -0.091 -4.1906 12.0905 3.2368 1.37176 -5.21299 0.630131 -10.2832 -6.64684 -6.38245 17.8434 -13.7174 -6.87076 -0.0 0.0 0.0 -0.0 0.0 0.0 -6.33464e-14 -1.52559e-14 6.32842e-14 95.5712 52.9531 -12.898 -26.9137 -40.6082 97.5033 -0.39455 -17.0487 -2.47494 -2.87318e-10 -1.54116e-11 -1.93214e-10 -4.96759e-10 -1.06976e-11 -3.35559e-10 -2.87317e-10 -1.54211e-11 -1.9322e-10 7.73091 5.47488 0.417314 -2.87324e-10 -1.54168e-11 -1.9321e-10 2.90554 0.965183 0.102902 -2.87319e-10 -1.54032e-11 -1.93212e-10 10.2786 0.731801 0.0259123 -2.8732e-10 -1.53789e-11 -1.93204e-10 2.22167 -0.733487 -0.20892 -6.34444e-14 -1.5258e-14 6.30198e-14 -93.9402 40.3707 17.367 28.0227 -36.8775 -88.9624 0.322011 -15.4627 2.23154 -2.61507e-10 -3.36786e-09 -5.93755e-11 -4.5197e-10 -5.83444e-09 -1.04415e-10 -2.61515e-10 -3.36786e-09 -5.93674e-11 -7.73091 5.47488 -0.417314 -2.61505e-10 -3.36787e-09 -5.93821e-11 -2.90554 0.965183 -0.102902 -2.6151e-10 -3.36787e-09 -5.9376e-11 -10.2786 0.731801 -0.0259123 -2.61499e-10 -3.36787e-09 -5.93866e-11 -2.22167 -0.733487 0.20892 -2.03217e-16 0.0 -3.88251e-19 -4.01796 -30.5924 -2.25859 -11.4594 85.0075 11.6967 -0.505324 8.72091 -6.29263 2.03217e-16 0.0 3.88251e-19 -4.58376 -22.3975 2.73996 0.60853 50.218 -0.807377 3.34909 -18.4761 7.47872
